<svg width="31" height="30" viewBox="0 0 31 30" fill="none" xmlns="http://www.w3.org/2000/svg">
<g id="dribble-svgrepo-com" clip-path="url(#clip0_6_706)">
<path id="Vector" d="M15.6292 28.3125C22.8779 28.3125 28.7542 22.4362 28.7542 15.1875C28.7542 7.93876 22.8779 2.0625 15.6292 2.0625C8.38041 2.0625 2.50415 7.93876 2.50415 15.1875C2.50415 22.4362 8.38041 28.3125 15.6292 28.3125Z" stroke="#020202" stroke-width="3" stroke-miterlimit="10"/>
<path id="Vector_2" d="M10.7792 2.8C13.0908 5.40779 15.057 8.30243 16.6292 11.4125C17.3739 12.8559 18.0334 14.3418 18.6042 15.8625C19.9566 19.398 20.8595 23.0894 21.2917 26.85" stroke="#020202" stroke-width="3" stroke-miterlimit="10"/>
<path id="Vector_3" d="M25.2166 6.025C22.7969 8.44523 19.8612 10.287 16.6291 11.4125C12.1516 13.1481 7.36487 13.9438 2.56665 13.75" stroke="#020202" stroke-width="3" stroke-miterlimit="10"/>
<path id="Vector_4" d="M28.6541 16.5125C25.4234 15.4851 21.9907 15.262 18.6541 15.8625C16.1374 16.3393 13.7691 17.4042 11.7423 18.9705C9.71553 20.5367 8.08771 22.5599 6.99164 24.875" stroke="#020202" stroke-width="3" stroke-miterlimit="10"/>
</g>
<defs>
<clipPath id="clip0_6_706">
<rect width="30" height="30" fill="white" transform="translate(0.62915)"/>
</clipPath>
</defs>
</svg>
