<svg width="31" height="30" viewBox="0 0 31 30" fill="none" xmlns="http://www.w3.org/2000/svg">
<path id="Vector" d="M15.6292 12V18H24.1156C23.493 19.7535 22.3432 21.2715 20.8238 22.3457C19.3044 23.4199 17.4899 23.9978 15.6292 24C13.2432 23.9968 10.9558 23.0476 9.2687 21.3605C7.58156 19.6733 6.63233 17.386 6.62915 15C6.63233 12.614 7.58156 10.3267 9.2687 8.63955C10.9558 6.95241 13.2432 6.00318 15.6292 6C17.7796 6 19.8507 6.7704 21.4587 8.172L25.3971 3.64801C22.6884 1.29253 19.2188 -0.00323675 15.6292 6.07196e-06C11.6523 0.00445271 7.83954 1.58623 5.02746 4.39831C2.21538 7.2104 0.633597 11.0231 0.62915 15C0.633597 18.9769 2.21538 22.7896 5.02746 25.6017C7.83954 28.4138 11.6523 29.9956 15.6292 30C19.606 29.9956 23.4188 28.4138 26.2308 25.6017C29.0429 22.7896 30.6247 18.9769 30.6292 15V12H15.6292Z" fill="black"/>
</svg>
