<svg width="36" height="50" viewBox="0 0 36 50" fill="none" xmlns="http://www.w3.org/2000/svg">
<path id="Subtract" d="M25.4997 24.5721H28.7274V5.64033C28.7274 3.79519 27.2823 2.29942 25.4997 2.29942H6.13358C4.35097 2.29942 2.90588 3.79519 2.90588 5.64033V24.5721H6.13358V23.7534C6.13358 21.7975 7.12501 19.985 8.74534 18.9787L10.8325 17.6824C9.91332 16.528 9.36127 15.0486 9.36127 13.4358C9.36127 9.74551 12.2514 6.75396 15.8167 6.75396C19.3819 6.75396 22.272 9.74551 22.272 13.4358C22.272 15.0486 21.72 16.528 20.8008 17.6824L22.888 18.9787C24.5083 19.985 25.4997 21.7975 25.4997 23.7534V24.5721ZM28.7274 26.7994H2.90588V39.0494C2.90588 40.8946 4.35097 42.3903 6.13358 42.3903H25.4997C27.2823 42.3903 28.7274 40.8946 28.7274 39.0494V26.7994ZM30.7891 4.61997C33.2893 5.09924 35.1828 7.36817 35.1828 10.0949V43.504C35.1828 46.5792 32.7743 49.0721 29.8033 49.0721H10.4372C7.80287 49.0721 5.61083 47.1122 5.1478 44.5243C2.64758 44.045 0.754089 41.7761 0.754089 39.0494V5.64033C0.754089 2.5651 3.16257 0.0721436 6.13358 0.0721436H25.4997C28.134 0.0721436 30.3261 2.03205 30.7891 4.61997ZM8.28537 33.4812C7.69117 33.4812 7.20948 32.9826 7.20948 32.3676C7.20948 31.7526 7.69117 31.254 8.28537 31.254H23.3479C23.9421 31.254 24.4238 31.7526 24.4238 32.3676C24.4238 32.9826 23.9421 33.4812 23.3479 33.4812H8.28537ZM8.28537 38.4181C7.69117 38.4181 7.20948 37.9195 7.20948 37.3044C7.20948 36.6894 7.69117 36.1908 8.28537 36.1908H19.0443C19.6386 36.1908 20.1202 36.6894 20.1202 37.3044C20.1202 37.9195 20.1202 38.4181 19.0443 38.4181H8.28537Z" fill="#141414"/>
</svg>
