<svg width="38" height="30" viewBox="0 0 38 30" fill="none" xmlns="http://www.w3.org/2000/svg">
<g id="Page-1">
<g id="Dribbble-Light-Preview">
<g id="icons">
<path id="twitter-[#154]" fill-rule="evenodd" clip-rule="evenodd" d="M11.6771 30C25.6877 30 33.3512 18.4565 33.3512 8.4473C33.3512 8.1187 33.3512 7.79257 33.3289 7.46767C34.8196 6.39695 36.1062 5.06755 37.1291 3.54641C35.7404 4.1593 34.2646 4.56124 32.7553 4.73845C34.3444 3.79143 35.5344 2.30361 36.1043 0.548023C34.608 1.43043 32.9725 2.05319 31.2664 2.38734C28.3815 -0.662329 23.5565 -0.810086 20.4878 2.05866C18.5107 3.90839 17.6697 6.66631 18.2842 9.29692C12.1598 8.99048 6.45303 6.11439 2.58418 1.38299C0.562506 4.84431 1.59655 9.27066 4.94374 11.4933C3.73147 11.4582 2.5452 11.1337 1.48516 10.5466V10.6428C1.48702 14.2481 4.04335 17.3525 7.59661 18.0669C6.47531 18.3715 5.29832 18.4156 4.15845 18.196C5.15537 21.2825 8.01616 23.3966 11.2742 23.4576C8.57681 25.5657 5.24448 26.7105 1.81376 26.7068C1.20855 26.705 0.603347 26.6698 0 26.5979C3.48456 28.8205 7.5372 30 11.6771 29.9945" fill="black"/>
</g>
</g>
</g>
</svg>
